<svg xmlns="http://www.w3.org/2000/svg" xmlns:xlink="http://www.w3.org/1999/xlink" width="200" zoomAndPan="magnify" viewBox="0 0 150 37.5" height="50" preserveAspectRatio="xMidYMid meet" version="1.0"><defs><g/><clipPath id="33dcdde8ea"><path d="M 6.527344 4.855469 L 42.792969 4.855469 L 42.792969 32.238281 L 6.527344 32.238281 Z M 6.527344 4.855469 " clip-rule="nonzero"/></clipPath></defs><g clip-path="url(#33dcdde8ea)"><path fill="#f7af24" d="M 35.355469 10.605469 L 35.355469 14.660156 L 24.566406 6.136719 L 13.777344 14.660156 L 13.777344 10.605469 L 6.527344 4.890625 L 6.527344 25.398438 L 21.625 32.109375 L 21.625 24.53125 L 16.320312 21.90625 L 24.566406 15.410156 L 32.8125 21.90625 L 27.507812 24.53125 L 27.507812 32.109375 L 42.609375 25.398438 L 42.609375 4.890625 Z M 40.375 23.949219 L 29.738281 28.675781 L 29.738281 25.914062 L 36.96875 22.34375 L 24.566406 12.566406 L 12.164062 22.34375 L 19.394531 25.914062 L 19.394531 28.675781 L 8.757812 23.949219 L 8.757812 9.488281 L 11.546875 11.6875 L 11.546875 19.265625 L 24.566406 8.980469 L 37.585938 19.265625 L 37.585938 11.6875 L 40.375 9.488281 Z M 40.375 23.949219 " fill-opacity="1" fill-rule="nonzero"/></g><g fill="#000000" fill-opacity="1"><g transform="translate(47.858041, 24.121442)"><g><path d="M 8.25 -11.054688 C 8.085938 -11.054688 7.972656 -10.960938 7.960938 -10.792969 L 7.394531 -4.324219 L 7.324219 -4.324219 L 5.96875 -10.808594 C 5.929688 -10.972656 5.832031 -11.054688 5.667969 -11.054688 L 4.835938 -11.054688 C 4.671875 -11.054688 4.574219 -10.972656 4.53125 -10.808594 L 3.164062 -4.324219 L 3.097656 -4.324219 L 2.558594 -10.792969 C 2.542969 -10.960938 2.433594 -11.054688 2.265625 -11.054688 L 0.953125 -11.054688 C 0.773438 -11.054688 0.675781 -10.945312 0.691406 -10.765625 L 1.824219 -0.261719 C 1.839844 -0.0820312 1.933594 0 2.113281 0 L 3.496094 0 C 3.664062 0 3.757812 -0.0820312 3.800781 -0.234375 L 5.25 -6.496094 L 6.6875 -0.25 C 6.730469 -0.0820312 6.828125 0 6.992188 0 L 8.347656 0 C 8.527344 0 8.625 -0.0820312 8.636719 -0.261719 L 9.828125 -10.765625 C 9.839844 -10.945312 9.742188 -11.054688 9.5625 -11.054688 Z M 8.25 -11.054688 "/></g></g></g><g fill="#000000" fill-opacity="1"><g transform="translate(58.36843, 24.121442)"><g><path d="M 6.207031 -10.835938 C 6.207031 -10.972656 6.148438 -11.054688 5.984375 -11.054688 L 0.898438 -11.054688 C 0.773438 -11.054688 0.691406 -10.972656 0.691406 -10.835938 L 0.691406 -0.222656 C 0.691406 -0.0820312 0.773438 0 0.898438 0 L 5.984375 0 C 6.148438 0 6.207031 -0.0820312 6.207031 -0.222656 L 6.207031 -1.601562 C 6.207031 -1.753906 6.148438 -1.824219 5.984375 -1.824219 L 2.527344 -1.824219 L 2.527344 -4.617188 L 5.167969 -4.617188 C 5.308594 -4.617188 5.390625 -4.699219 5.390625 -4.851562 L 5.390625 -6.21875 C 5.390625 -6.371094 5.308594 -6.453125 5.167969 -6.453125 L 2.527344 -6.453125 L 2.527344 -9.21875 L 5.984375 -9.21875 C 6.148438 -9.21875 6.207031 -9.316406 6.207031 -9.453125 Z M 6.207031 -10.835938 "/></g></g></g><g fill="#000000" fill-opacity="1"><g transform="translate(65.26026, 24.121442)"><g><path d="M 6.234375 -9.066406 C 6.234375 -10.367188 5.527344 -11.054688 4.230469 -11.054688 L 0.914062 -11.054688 C 0.773438 -11.054688 0.691406 -10.988281 0.691406 -10.835938 L 0.691406 -0.222656 C 0.691406 -0.0820312 0.773438 0 0.914062 0 L 4.230469 0 C 5.527344 0 6.234375 -0.691406 6.234375 -1.988281 L 6.234375 -4.53125 C 6.234375 -5.042969 5.859375 -5.429688 5.363281 -5.515625 L 5.363281 -5.542969 C 5.859375 -5.625 6.234375 -6.011719 6.234375 -6.523438 Z M 4.394531 -6.980469 C 4.394531 -6.632812 4.203125 -6.441406 3.84375 -6.441406 L 2.585938 -6.441406 L 2.585938 -9.230469 L 3.84375 -9.230469 C 4.214844 -9.230469 4.394531 -9.039062 4.394531 -8.679688 Z M 4.394531 -2.378906 C 4.394531 -2.003906 4.203125 -1.824219 3.84375 -1.824219 L 2.585938 -1.824219 L 2.585938 -4.617188 L 3.84375 -4.617188 C 4.214844 -4.617188 4.394531 -4.421875 4.394531 -4.0625 Z M 4.394531 -2.378906 "/></g></g></g><g fill="#000000" fill-opacity="1"><g transform="translate(72.179721, 24.121442)"><g><path d="M 0.914062 -11.054688 C 0.761719 -11.054688 0.691406 -10.972656 0.691406 -10.835938 L 0.691406 -0.222656 C 0.691406 -0.0820312 0.761719 0 0.914062 0 L 2.347656 0 C 2.488281 0 2.570312 -0.0820312 2.570312 -0.222656 L 2.570312 -10.835938 C 2.570312 -10.972656 2.488281 -11.054688 2.347656 -11.054688 Z M 0.914062 -11.054688 "/></g></g></g><g fill="#000000" fill-opacity="1"><g transform="translate(75.439188, 24.121442)"><g><path d="M 7.351562 0 C 7.519531 0 7.574219 -0.0820312 7.546875 -0.234375 L 5.25 -10.863281 C 5.222656 -11 5.140625 -11.054688 5.015625 -11.054688 L 3.097656 -11.054688 C 2.972656 -11.054688 2.886719 -11 2.859375 -10.863281 L 0.566406 -0.234375 C 0.523438 -0.0820312 0.59375 0 0.746094 0 L 2.226562 0 C 2.347656 0 2.417969 -0.0703125 2.445312 -0.195312 L 2.820312 -2.210938 L 5.28125 -2.210938 L 5.667969 -0.195312 C 5.695312 -0.0703125 5.761719 0 5.886719 0 Z M 4.933594 -3.816406 L 3.164062 -3.816406 L 4.050781 -8.636719 Z M 4.933594 -3.816406 "/></g></g></g><g fill="#000000" fill-opacity="1"><g transform="translate(83.532613, 24.121442)"><g/></g></g><g fill="#000000" fill-opacity="1"><g transform="translate(86.985435, 24.121442)"><g><path d="M 2.679688 -11.054688 C 1.394531 -11.054688 0.691406 -10.367188 0.691406 -9.066406 L 0.691406 -5.804688 C 0.691406 -5.542969 0.816406 -5.375 1.0625 -5.292969 L 4.339844 -4.214844 L 4.339844 -2.378906 C 4.339844 -2.003906 4.144531 -1.824219 3.785156 -1.824219 L 3.125 -1.824219 C 2.777344 -1.824219 2.570312 -2.003906 2.570312 -2.378906 L 2.570312 -3.441406 C 2.570312 -3.59375 2.5 -3.664062 2.347656 -3.664062 L 0.914062 -3.664062 C 0.773438 -3.664062 0.691406 -3.59375 0.691406 -3.441406 L 0.691406 -1.988281 C 0.691406 -0.691406 1.394531 0 2.679688 0 L 4.230469 0 C 5.527344 0 6.21875 -0.691406 6.21875 -1.988281 L 6.21875 -5.183594 C 6.21875 -5.445312 6.09375 -5.597656 5.859375 -5.695312 L 2.570312 -6.773438 L 2.570312 -8.679688 C 2.570312 -9.039062 2.777344 -9.230469 3.125 -9.230469 L 3.785156 -9.230469 C 4.160156 -9.230469 4.339844 -9.039062 4.339844 -8.679688 L 4.339844 -7.601562 C 4.339844 -7.464844 4.421875 -7.378906 4.5625 -7.378906 L 6 -7.378906 C 6.148438 -7.378906 6.21875 -7.464844 6.21875 -7.601562 L 6.21875 -9.066406 C 6.21875 -10.367188 5.527344 -11.054688 4.230469 -11.054688 Z M 2.679688 -11.054688 "/></g></g></g><g fill="#000000" fill-opacity="1"><g transform="translate(93.891081, 24.121442)"><g><path d="M 0.691406 -1.988281 C 0.691406 -0.691406 1.382812 0 2.679688 0 L 4.230469 0 C 5.527344 0 6.21875 -0.691406 6.21875 -1.988281 L 6.21875 -9.066406 C 6.21875 -10.367188 5.527344 -11.054688 4.230469 -11.054688 L 2.679688 -11.054688 C 1.382812 -11.054688 0.691406 -10.367188 0.691406 -9.066406 Z M 3.082031 -1.78125 C 2.722656 -1.78125 2.527344 -1.960938 2.527344 -2.335938 L 2.527344 -8.722656 C 2.527344 -9.082031 2.722656 -9.273438 3.082031 -9.273438 L 3.882812 -9.273438 C 4.242188 -9.273438 4.4375 -9.082031 4.4375 -8.722656 L 4.4375 -2.335938 C 4.4375 -1.960938 4.242188 -1.78125 3.882812 -1.78125 Z M 3.082031 -1.78125 "/></g></g></g><g fill="#000000" fill-opacity="1"><g transform="translate(100.796726, 24.121442)"><g><path d="M 2.570312 -1.824219 L 5.859375 -1.824219 C 6.011719 -1.824219 6.082031 -1.742188 6.082031 -1.601562 L 6.082031 -0.222656 C 6.082031 -0.0703125 6.011719 0 5.859375 0 L 0.914062 0 C 0.773438 0 0.691406 -0.0703125 0.691406 -0.222656 L 0.691406 -10.835938 C 0.691406 -10.972656 0.773438 -11.054688 0.914062 -11.054688 L 2.347656 -11.054688 C 2.5 -11.054688 2.570312 -10.972656 2.570312 -10.835938 Z M 2.570312 -1.824219 "/></g></g></g><g fill="#000000" fill-opacity="1"><g transform="translate(107.564266, 24.121442)"><g><path d="M 4.671875 -11.054688 C 4.519531 -11.054688 4.394531 -10.933594 4.394531 -10.78125 L 4.394531 -2.378906 C 4.394531 -2.003906 4.203125 -1.824219 3.84375 -1.824219 L 3.125 -1.824219 C 2.765625 -1.824219 2.570312 -2.003906 2.570312 -2.378906 L 2.570312 -10.78125 C 2.570312 -10.933594 2.445312 -11.054688 2.292969 -11.054688 L 0.96875 -11.054688 C 0.816406 -11.054688 0.691406 -10.933594 0.691406 -10.78125 L 0.691406 -1.988281 C 0.691406 -0.691406 1.382812 0 2.679688 0 L 4.230469 0 C 5.527344 0 6.21875 -0.691406 6.21875 -1.988281 L 6.21875 -10.78125 C 6.21875 -10.933594 6.09375 -11.054688 5.941406 -11.054688 Z M 4.671875 -11.054688 "/></g></g></g><g fill="#000000" fill-opacity="1"><g transform="translate(114.469912, 24.121442)"><g><path d="M 0.636719 -11.054688 C 0.496094 -11.054688 0.414062 -10.972656 0.414062 -10.835938 L 0.414062 -9.453125 C 0.414062 -9.316406 0.496094 -9.230469 0.636719 -9.230469 L 2.238281 -9.230469 L 2.238281 -0.222656 C 2.238281 -0.0703125 2.320312 0 2.460938 0 L 3.898438 0 C 4.050781 0 4.117188 -0.0703125 4.117188 -0.222656 L 4.117188 -9.230469 L 5.722656 -9.230469 C 5.875 -9.230469 5.941406 -9.316406 5.941406 -9.453125 L 5.941406 -10.835938 C 5.941406 -10.972656 5.875 -11.054688 5.722656 -11.054688 Z M 0.636719 -11.054688 "/></g></g></g><g fill="#000000" fill-opacity="1"><g transform="translate(120.823109, 24.121442)"><g><path d="M 0.914062 -11.054688 C 0.761719 -11.054688 0.691406 -10.972656 0.691406 -10.835938 L 0.691406 -0.222656 C 0.691406 -0.0820312 0.761719 0 0.914062 0 L 2.347656 0 C 2.488281 0 2.570312 -0.0820312 2.570312 -0.222656 L 2.570312 -10.835938 C 2.570312 -10.972656 2.488281 -11.054688 2.347656 -11.054688 Z M 0.914062 -11.054688 "/></g></g></g><g fill="#000000" fill-opacity="1"><g transform="translate(124.082576, 24.121442)"><g><path d="M 0.691406 -1.988281 C 0.691406 -0.691406 1.382812 0 2.679688 0 L 4.230469 0 C 5.527344 0 6.21875 -0.691406 6.21875 -1.988281 L 6.21875 -9.066406 C 6.21875 -10.367188 5.527344 -11.054688 4.230469 -11.054688 L 2.679688 -11.054688 C 1.382812 -11.054688 0.691406 -10.367188 0.691406 -9.066406 Z M 3.082031 -1.78125 C 2.722656 -1.78125 2.527344 -1.960938 2.527344 -2.335938 L 2.527344 -8.722656 C 2.527344 -9.082031 2.722656 -9.273438 3.082031 -9.273438 L 3.882812 -9.273438 C 4.242188 -9.273438 4.4375 -9.082031 4.4375 -8.722656 L 4.4375 -2.335938 C 4.4375 -1.960938 4.242188 -1.78125 3.882812 -1.78125 Z M 3.082031 -1.78125 "/></g></g></g><g fill="#000000" fill-opacity="1"><g transform="translate(130.988221, 24.121442)"><g><path d="M 4.933594 -11.054688 C 4.78125 -11.054688 4.710938 -10.972656 4.710938 -10.835938 L 4.710938 -5.003906 L 4.628906 -5.003906 L 2.527344 -10.875 C 2.488281 -11 2.40625 -11.054688 2.28125 -11.054688 L 0.914062 -11.054688 C 0.773438 -11.054688 0.691406 -10.972656 0.691406 -10.835938 L 0.691406 -0.222656 C 0.691406 -0.0820312 0.773438 0 0.914062 0 L 2.347656 0 C 2.5 0 2.570312 -0.0820312 2.570312 -0.222656 L 2.570312 -6.082031 L 2.640625 -6.082031 L 4.753906 -0.179688 C 4.796875 -0.0546875 4.878906 0 5.003906 0 L 6.371094 0 C 6.507812 0 6.59375 -0.0820312 6.59375 -0.222656 L 6.59375 -10.835938 C 6.59375 -10.972656 6.507812 -11.054688 6.371094 -11.054688 Z M 4.933594 -11.054688 "/></g></g></g><g fill="#000000" fill-opacity="1"><g transform="translate(138.266775, 24.121442)"><g><path d="M 1.023438 -11.054688 C 0.882812 -11.042969 0.800781 -10.972656 0.800781 -10.820312 L 0.800781 -9.441406 C 0.800781 -9.300781 0.882812 -9.21875 1.023438 -9.21875 L 3.882812 -9.21875 L 0.441406 -0.332031 C 0.359375 -0.136719 0.429688 0 0.648438 0 L 6.027344 0 C 6.164062 -0.015625 6.246094 -0.0976562 6.246094 -0.234375 L 6.246094 -1.601562 C 6.246094 -1.753906 6.164062 -1.824219 6.027344 -1.824219 L 2.984375 -1.824219 L 6.425781 -10.726562 C 6.496094 -10.917969 6.441406 -11.054688 6.21875 -11.054688 Z M 1.023438 -11.054688 "/></g></g></g></svg>